<svg viewBox="0 0 1024 1024" version="1.1" xmlns="http://www.w3.org/2000/svg" width="48" height="48">
  <g transform="scale(0.8), translate(128,128)">
    <path d="M787.412 692.132l-82.024 82.024 76.368 76.368 82.024-82.024-76.368-76.368z" fill="#5E6480"></path>
    <path d="M814.28 801.028s64.544-71.224 96.168-39.6c31.624 31.624 8.792 64.748-31.112 104.652-39.904 39.904-73.028 62.74-104.652 31.112-31.624-31.624 39.596-96.164 39.596-96.164z" fill="#FFBD57"></path>
    <path d="M752.056 631.32l-107.48 107.48-59.396-59.396-53.74 70.712L98.688 204.228l8.488-110.308 110.308-8.484 545.888 432.748-70.712 53.74 59.396 59.396z" fill="#9DA9E9"></path>
    <path d="M107.176 93.92l110.308-8.484 545.888 432.748-70.712 53.74 59.396 59.396-53.74 53.74L107.176 93.92z" fill="#C3D1F7"></path>
    <path d="M458.2 444.944L257.384 244.128l15.236-114.984 205.812 163.156-20.232 152.644z" fill="#E5EDFE"></path>
    <path d="M849.636 573.34c-17.172-17.172-45.052-17.172-62.224 0l-200.82 200.816c-17.172 17.172-17.172 45.056 0 62.224 17.172 17.172 45.056 17.172 62.228 0l200.816-200.816c17.172-17.172 17.172-45.056 0-62.224z" fill="#FF864B"></path>
    <path d="M849.636 573.34c-17.172-17.172-45.052-17.172-62.224 0l-73.54 73.536c-17.172 17.172-17.172 45.056 0 62.228 17.172 17.172 45.056 17.172 62.228 0l73.536-73.54c17.172-17.172 17.172-45.056 0-62.224z" fill="#FFDC89"></path>
  </g>
</svg>