<svg viewBox="0 0 1024 1024" version="1.1" xmlns="http://www.w3.org/2000/svg" width="48" height="48">
  <g transform="scale(0.8), translate(128,128)">
    <path d="M287.452 856.24a12.508 12.508 0 0 1-12.212-12.784 12.508 12.508 0 0 1 12.784-12.212l492.148 11.316a12.504 12.504 0 0 1-0.576 24.992L287.452 856.24zM170.588 739.376a12.508 12.508 0 0 0 12.784 12.212 12.508 12.508 0 0 0 12.212-12.784L184.268 246.656a12.5 12.5 0 0 0-24.992 0.576l11.312 492.144z" fill="#BFBDBE"></path>
    <path d="M318.852 835.256l-2.828-98.996L194.4 857.884l2.108 73.788a10.868 10.868 0 0 0 18.552 7.376l103.792-103.792z" fill="#FF8560"></path>
    <path d="M412.188 798.488l-2.828-98.996-121.62 121.624 2.108 73.784a10.872 10.872 0 0 0 18.552 7.376l103.788-103.788z" fill="#FFB36E"></path>
    <path d="M188.744 705.148l98.996 2.828L166.116 829.6l-73.788-2.108a10.868 10.868 0 0 1-7.376-18.552l103.792-103.792z" fill="#FFB469"></path>
    <path d="M180.256 741.92l98.996 2.828-121.62 121.62-73.788-2.108a10.872 10.872 0 0 1-7.376-18.552l103.788-103.788z" fill="#FF8162"></path>
    <path d="M683.716 340.284s84.536 73.216 155.564 144.248c71.032 71.032 75.792 165.524 70.712 189.504-4.58 21.62-46.7 95.16-86.212 149.776a28.7 28.7 0 0 0 0.136 34.26c3.5 4.736 7.284 9.78 10.656 14.276a19.916 19.916 0 0 1-1.852 26.036l-0.66 0.664a22.8 22.8 0 0 1-31.496 0.716l-31.52-28.784a31.28 31.28 0 0 1-7.012-36.848c23.528-48.616 76.96-168.128 54.62-208.18-23.712-42.524-40.892-40.892-84.852-84.852-26.988-26.988-52.316-97.572-101.824-147.076-49.504-49.508-120.088-74.836-147.076-101.824-43.96-43.96-42.328-61.14-84.852-84.852-40.052-22.34-159.564 31.092-208.18 54.62a31.28 31.28 0 0 1-36.848-7.012l-28.784-31.52a22.8 22.8 0 0 1 0.716-31.496l0.664-0.66a19.916 19.916 0 0 1 26.036-1.852c4.496 3.372 9.54 7.156 14.276 10.656a28.7 28.7 0 0 0 34.26 0.136c54.616-39.512 128.156-81.632 149.776-86.212 23.98-5.08 118.472-0.32 189.504 70.712 71.032 71.028 144.248 155.564 144.248 155.564z" fill="#FF603F"></path>
    <path d="M120.408 198.424a22.8 22.8 0 0 1 4.544-6.484l0.664-0.66a19.916 19.916 0 0 1 26.036-1.852c4.496 3.372 9.54 7.156 14.276 10.656a28.7 28.7 0 0 0 34.26 0.136c54.616-39.512 128.156-81.632 149.776-86.212 23.98-5.08 118.472-0.32 189.504 70.712 71.032 71.028 144.248 155.564 144.248 155.564s84.536 73.216 155.564 144.248c71.032 71.032 75.792 165.524 70.712 189.504-4.58 21.62-46.7 95.16-86.212 149.776a28.7 28.7 0 0 0 0.136 34.26c3.5 4.736 7.284 9.78 10.656 14.276a19.916 19.916 0 0 1-1.852 26.036l-0.66 0.664a22.8 22.8 0 0 1-6.484 4.544 19.92 19.92 0 0 0-2.316-19.932c-3.372-4.496-7.156-9.54-10.656-14.276a28.704 28.704 0 0 1-0.14-34.26c39.512-54.612 81.636-128.152 86.216-149.772 5.076-23.98 0.316-118.476-70.712-189.508-71.032-71.028-155.564-144.248-155.564-144.248s-73.22-84.532-144.248-155.564C457.124 125.004 362.628 120.244 338.648 125.32c-21.62 4.58-95.16 46.704-149.772 86.216a28.704 28.704 0 0 1-34.26-0.14c-4.736-3.5-9.78-7.284-14.276-10.656a19.92 19.92 0 0 0-19.932-2.316z" fill="#FFFFFF" fill-opacity=".2"></path>
    <path d="M566.12 211.808c62.128 64.216 119.012 129.888 119.012 129.888s65.672 56.884 129.888 119.016l-81.804 81.804c-26.988-26.988-52.316-97.572-101.824-147.08-49.508-49.508-120.092-74.836-147.08-101.824l81.808-81.804z" fill="#DD3551" fill-opacity=".5"></path>
    <path d="M692.772 348.196a3721.456 3721.456 0 0 1 29.948 26.624l-59.552 59.548c-7.572-10.888-15.816-21.596-24.92-31.648l54.524-54.524z" fill="#BB2B3B" fill-opacity=".5"></path>
    <path d="M796.856 255.428l-28.284-28.284L166.116 829.6l28.284 28.284L796.856 255.428z" fill="#5D566A"></path>
    <path d="M891.824 132.176l-161.656 36.768v124.888h124.888l36.768-161.656z" fill="#B2C2F8"></path>
    <path d="M911.188 109.548l-121.316 121.312a14.568 14.568 0 0 1-24.676-7.956l-15.228-93.556 161.22-19.8z" fill="#FFFFFF" fill-opacity=".4"></path>
  </g>
</svg>